<svg xmlns="http://www.w3.org/2000/svg" width="640" height="360" viewBox="0 0 640 360">
  <defs>
    <linearGradient id="bg" x1="0%" y1="0%" x2="100%" y2="100%">
      <stop offset="0%" stop-color="#0b1829"/>
      <stop offset="100%" stop-color="#22543d"/>
    </linearGradient>
  </defs>
  <rect width="640" height="360" fill="url(#bg)"/>
  <rect x="100" y="55" width="440" height="200" rx="16" fill="rgba(4,11,22,0.55)" stroke="rgba(79,209,197,0.3)" stroke-width="1"/>
  <rect x="130" y="90" width="22" height="22" rx="6" fill="none" stroke="#4fd1c5" stroke-width="2"/>
  <polyline points="134,101 140,107 148,95" fill="none" stroke="#4fd1c5" stroke-width="2" stroke-linecap="round"/>
  <rect x="165" y="95" width="200" height="10" rx="5" fill="rgba(226,232,240,0.5)"/>
  <rect x="130" y="130" width="22" height="22" rx="6" fill="none" stroke="#f6ad55" stroke-width="2"/>
  <rect x="165" y="135" width="260" height="10" rx="5" fill="rgba(226,232,240,0.35)"/>
  <rect x="130" y="170" width="22" height="22" rx="6" fill="rgba(246,173,85,0.2)" stroke="rgba(246,173,85,0.5)" stroke-width="2"/>
  <rect x="165" y="175" width="180" height="10" rx="5" fill="rgba(226,232,240,0.25)"/>
  <rect x="130" y="210" width="22" height="22" rx="6" fill="none" stroke="#63b3ed" stroke-width="2"/>
  <polyline points="134,221 140,227 148,215" fill="none" stroke="#63b3ed" stroke-width="2" stroke-linecap="round"/>
  <rect x="165" y="215" width="220" height="10" rx="5" fill="rgba(226,232,240,0.2)"/>
  <circle cx="480" cy="100" r="28" fill="rgba(246,173,85,0.15)" stroke="rgba(246,173,85,0.4)" stroke-width="1"/>
  <text x="480" y="106" text-anchor="middle" fill="#f6ad55" font-family="Arial,sans-serif" font-size="16" font-weight="700">3</text>
  <text x="48" y="310" fill="#f6ad55" font-family="Arial,sans-serif" font-size="22" font-weight="800">Task Management App</text>
  <text x="48" y="336" fill="#a0aec0" font-family="Arial,sans-serif" font-size="14">Full Stack · React · Real-time</text>
</svg>
